# xmcd
#
# Track frame offsets:
#	187
#	16602
#	35457
#	61935
#	83580
#	102940
#	128827
#	148602
#	166462
#	177400
#
# Disc length: 2723 seconds
#
# Revision: 1
# Processed by: cddbd v1.5PL3 Copyright (c) Steve Scherf et al.
# Submitted via: CDex 1.50Beta5
#
DISCID=780aa10a
DTITLE=AION - Absolute
DYEAR=1994
DGENRE=Rock
TTITLE0=Anguished Heroes
TTITLE1=Elegant Fear
TTITLE2=Last Serenade
TTITLE3=Body Inside,The
TTITLE4=Astia
TTITLE5=Still
TTITLE6=High Flying Shadow
TTITLE7=Missing
TTITLE8=Demoniac Insanity
TTITLE9=Peter
EXTD=
EXTT0=
EXTT1=
EXTT2=
EXTT3=
EXTT4=
EXTT5=
EXTT6=
EXTT7=
EXTT8=
EXTT9=
PLAYORDER=
